<svg xmlns="http://www.w3.org/2000/svg" viewBox="0 0 64 64" id="cloudy">
  <g>
    <path fill="#63a7c9" d="M59.74,23.73A6.79,6.79,0,0,1,53,30.51H34a4.44,4.44,0,0,1-.56-8.84A3,3,0,0,1,37.27,19a7.19,7.19,0,0,1,13-1.48,6.78,6.78,0,0,1,9.48,6.23Z"></path>
    <path fill="#008bc1" d="M54.73,30.27a6.52,6.52,0,0,1-1.77.24H34a4.44,4.44,0,0,1-.56-8.84A3,3,0,0,1,37.27,19a7.06,7.06,0,0,1,1.09-2.09,12.9,12.9,0,0,1,3.49,7.3s5.23.17,6.34,3.85C48.19,28,52.31,27.37,54.73,30.27Z"></path>
    <path fill="#89cbe5" d="M59.74,23.73c0,.15,0,.31,0,.46l-.32-.56c-5.18-7.58-12.89-1.36-12.89-1.36a7.43,7.43,0,0,1,1.73-3.86C43.9,13.53,38,17.49,38,17.49a7.2,7.2,0,0,1,12.31,0,6.78,6.78,0,0,1,9.48,6.23Z"></path>
    <path fill="#003166" d="M53,16.3a7.25,7.25,0,0,0-2.45.42,7.84,7.84,0,0,0-13.66,1.52,3,3,0,0,0-.43,0,3.63,3.63,0,0,0-3.56,2.91,5.08,5.08,0,0,0,1.14,10H53A7.43,7.43,0,0,0,53,16.3Zm0,13.57H34a3.8,3.8,0,0,1-.49-7.56,3.86,3.86,0,0,1,2.83.82,3.79,3.79,0,0,1,1.43,2.55.64.64,0,0,0,.64.58h.06a.63.63,0,0,0,.57-.7,5,5,0,0,0-1.9-3.42A5.17,5.17,0,0,0,34.23,21a2.33,2.33,0,0,1,2.19-1.51,2.39,2.39,0,0,1,.66.09.64.64,0,0,0,.8-.41,6.55,6.55,0,0,1,11.44-1.92,7.43,7.43,0,0,0-3.78,6.47.64.64,0,0,0,.64.64.64.64,0,0,0,.64-.64A6.14,6.14,0,1,1,53,29.87Z"></path>
    <path fill="#cdf0f0" d="M38.67,26.52a7.81,7.81,0,0,1-7.81,7.81H9a5.11,5.11,0,0,1-.65-10.18,3.43,3.43,0,0,1,3.43-3.24,3.39,3.39,0,0,1,1,.14,8.3,8.3,0,0,1,15-1.7,7.82,7.82,0,0,1,10.92,7.17Z"></path>
    <path fill="#e8f9f9" d="M38.67,26.52c0,.18,0,.36,0,.54l-.37-.65c-6-8.73-14.85-1.57-14.85-1.57a8.6,8.6,0,0,1,2-4.45c-5-5.61-11.85-1.06-11.85-1.06a8.29,8.29,0,0,1,14.18,0,7.82,7.82,0,0,1,10.92,7.17Z"></path>
    <path fill="#9bccca" d="M15,34.33H9a5.11,5.11,0,0,1-1.9-9.86C7.26,27.54,8.66,32,15,34.33Z"></path>
    <path fill="#003166" d="M30.86,18.07a8.35,8.35,0,0,0-2.86.49A8.94,8.94,0,0,0,12.36,20.3a5.12,5.12,0,0,0-.56,0,4.07,4.07,0,0,0-4,3.33A5.76,5.76,0,0,0,9,35H30.86a8.46,8.46,0,0,0,0-16.91Zm0,15.62H9a4.47,4.47,0,0,1-.58-8.9,4.57,4.57,0,0,1,3.33,1,4.4,4.4,0,0,1,1.68,3,.65.65,0,0,0,.64.57h.07a.65.65,0,0,0,.57-.71,5.69,5.69,0,0,0-2.16-3.87,5.89,5.89,0,0,0-3.43-1.28,2.81,2.81,0,0,1,2.66-1.93,3,3,0,0,1,.79.11.63.63,0,0,0,.79-.41A7.65,7.65,0,0,1,26.81,19.1a8.45,8.45,0,0,0-4.41,7.42.64.64,0,0,0,.64.64.64.64,0,0,0,.64-.64,7.21,7.21,0,0,1,4.43-6.63h0l.26-.1h0a7.17,7.17,0,1,1,2.48,13.9Z"></path>
    <path fill="#63a7c9" d="M60.1,39.6A10.37,10.37,0,0,1,49.72,50h-29a6.79,6.79,0,0,1-.86-13.52,4.55,4.55,0,0,1,5.85-4.12,11,11,0,0,1,19.88-2.25A10.37,10.37,0,0,1,60.1,39.6Z"></path>
    <path fill="#89cbe5" d="M60.1,39.6c0,.24,0,.47,0,.71l-.5-.86c-7.92-11.59-19.71-2.08-19.71-2.08a11.44,11.44,0,0,1,2.64-5.91C35.86,24,26.76,30.05,26.76,30.05a11,11,0,0,1,18.83,0A10.37,10.37,0,0,1,60.1,39.6Z"></path>
    <path fill="#008bc1" d="M28.64,50H20.72a6.79,6.79,0,0,1-2.51-13.09C18.4,41,20.25,46.87,28.64,50Z"></path>
    <path fill="#003166" d="M49.72,28.58a11,11,0,0,0-3.87.7,11.65,11.65,0,0,0-20.55,2.3,5.14,5.14,0,0,0-.88-.08,5.21,5.21,0,0,0-5.14,4.4,7.42,7.42,0,0,0,1.44,14.71h29a11,11,0,1,0,0-22Zm0,20.75h-29a6.15,6.15,0,0,1-.78-12.24,6.29,6.29,0,0,1,6.88,5.46.66.66,0,0,0,.64.58h.07a.63.63,0,0,0,.57-.7,7.32,7.32,0,0,0-2.79-5,7.54,7.54,0,0,0-4.7-1.65,3.93,3.93,0,0,1,3.81-3,4.14,4.14,0,0,1,1.11.16.63.63,0,0,0,.79-.41,10.37,10.37,0,0,1,18.34-2.71,11,11,0,0,0-5.95,9.78.64.64,0,0,0,.64.64A.64.64,0,0,0,40,39.6a9.74,9.74,0,0,1,5.86-8.93l0,0a9.61,9.61,0,0,1,3.82-.79,9.74,9.74,0,0,1,0,19.47Z"></path>
  </g>
</svg>
