<svg xmlns="http://www.w3.org/2000/svg" viewBox="0 0 64 64" id="snowflake">
  <polygon fill="#9bf6ff" points="32 24 24 30.11 27.06 40 36.94 40 40 30.11 32 24"></polygon>
  <polygon fill="#e2eafc" points="32 27 27 30.82 28.91 37 35.09 37 37 30.82 32 27"></polygon>
  <polygon fill="#9bf6ff" points="32 55 29.59 56.19 29 58.86 30.66 61 33.34 61 35 58.86 34.41 56.19 32 55"></polygon>
  <polygon fill="#9bf6ff" points="32 9 34.41 7.81 35 5.14 33.34 3 30.66 3 29 5.14 29.59 7.81 32 9"></polygon>
  <polygon fill="#9bf6ff" points="9 32 7.81 29.59 5.14 29 3 30.66 3 33.34 5.14 35 7.81 34.41 9 32"></polygon>
  <polygon fill="#9bf6ff" points="55 32 56.19 34.41 58.86 35 61 33.34 61 30.66 58.86 29 56.19 29.59 55 32"></polygon>
  <polygon fill="#9bf6ff" points="15.74 48.26 13.2 47.4 10.89 48.87 10.55 51.56 12.44 53.45 15.13 53.11 16.6 50.8 15.74 48.26"></polygon>
  <polygon fill="#9bf6ff" points="48.26 15.74 50.8 16.6 53.11 15.13 53.45 12.44 51.56 10.55 48.87 10.89 47.4 13.2 48.26 15.74"></polygon>
  <polygon fill="#9bf6ff" points="15.74 15.74 16.6 13.2 15.13 10.89 12.44 10.55 10.55 12.44 10.89 15.13 13.2 16.6 15.74 15.74"></polygon>
  <polygon fill="#9bf6ff" points="48.26 48.26 47.4 50.8 48.87 53.11 51.56 53.45 53.45 51.56 53.11 48.87 50.8 47.4 48.26 48.26"></polygon>
  <path d="M59.47,28.21a1,1,0,0,0-.83-.19l-2.67.6a1,1,0,0,0-.68.53L54.38,31h-4l2.3-2.29a1,1,0,0,0-1.42-1.42L47.59,31H44.87l3-4.45a1,1,0,0,0,0-1.11,1,1,0,0,0-.78-.78l-5.24-1.05,1.92-1.92H49a1,1,0,0,0,0-2H45.73l2.8-2.81,1.95.66a1,1,0,0,0,.32.06,1,1,0,0,0,.54-.16L53.65,16a1,1,0,0,0,.46-.72l.33-2.69a1,1,0,0,0-.28-.83L52.27,9.84a1,1,0,0,0-.83-.28l-2.69.33a1,1,0,0,0-.72.46l-1.47,2.31a1,1,0,0,0-.1.86l.66,2-2.81,2.8V15a1,1,0,0,0-2,0v5.24l-1.92,1.92-1-5.24a1.46,1.46,0,0,0-1.89-.78l-4.45,3V16.41l3.71-3.7a1,1,0,0,0-1.42-1.42L33,13.59v-4l1.85-.91A1,1,0,0,0,35.38,8L36,5.36a1,1,0,0,0-.19-.83L34.12,2.39A1,1,0,0,0,33.33,2H30.67a1,1,0,0,0-.79.39L28.21,4.53a1,1,0,0,0-.19.83L28.62,8a1,1,0,0,0,.53.68L31,9.62v4l-2.29-2.3a1,1,0,0,0-1.42,1.42L31,16.41v2.72l-4.45-3a1,1,0,0,0-1.1,0,1,1,0,0,0-.79.78l-1.05,5.24-1.92-1.92V15a1,1,0,1,0-2,0v3.24l-2.81-2.8.66-2a1,1,0,0,0-.1-.86L16,10.35a1,1,0,0,0-.72-.46l-2.69-.33a1,1,0,0,0-.83.28L9.84,11.73a1,1,0,0,0-.28.83l.33,2.69a1,1,0,0,0,.46.72l2.31,1.47a1,1,0,0,0,.54.16,1,1,0,0,0,.32-.06l2-.66,2.8,2.81H15a1,1,0,1,0,0,2h5.24l1.92,1.92L17,24.66a1,1,0,0,0-.78.78,1,1,0,0,0,0,1.11l3,4.45H16.41l-3.7-3.71a1,1,0,0,0-1.42,1.42L13.59,31h-4l-.91-1.85A1,1,0,0,0,8,28.62L5.36,28a1,1,0,0,0-.83.19L2.39,29.88a1,1,0,0,0-.39.79v2.66a1,1,0,0,0,.39.79l2.14,1.67a1,1,0,0,0,.61.21l.22,0L8,35.38a1,1,0,0,0,.68-.53L9.62,33h4l-2.3,2.29a1,1,0,0,0,0,1.42,1,1,0,0,0,1.42,0L16.41,33h2.72l-3,4.45a1,1,0,0,0,0,1.11,1,1,0,0,0,.78.78l5.24,1-1.92,1.92H15a1,1,0,0,0,0,2h3.24l-2.8,2.81-2-.66a1,1,0,0,0-.86.1L10.35,48a1,1,0,0,0-.46.72l-.33,2.69a1,1,0,0,0,.28.83l1.89,1.89a1,1,0,0,0,.71.29h.12l2.69-.33a1,1,0,0,0,.72-.46l1.47-2.31a1,1,0,0,0,.1-.86l-.66-1.95,2.81-2.8V49a1,1,0,0,0,2,0V43.73l1.92-1.92,1.05,5.24a1,1,0,0,0,.77.76,1,1,0,0,0,1.12,0l4.45-3v2.72l-3.71,3.7a1,1,0,0,0,1.42,1.42L31,50.41v4l-1.85.91a1,1,0,0,0-.53.68L28,58.64a1,1,0,0,0,.19.83l1.67,2.14a1,1,0,0,0,.79.39h2.66a1,1,0,0,0,.79-.39l1.67-2.14a1,1,0,0,0,.19-.83L35.38,56a1,1,0,0,0-.53-.68L33,54.38v-4l2.29,2.3a1,1,0,0,0,1.42,0,1,1,0,0,0,0-1.42L33,47.59V44.87l4.45,3A.94.94,0,0,0,38,48a1,1,0,0,0,.57-.19,1,1,0,0,0,.77-.76l1-5.24,1.92,1.92V49a1,1,0,0,0,2,0V45.73l2.81,2.8-.66,1.95a1,1,0,0,0,.1.86L48,53.65a1,1,0,0,0,.72.46l2.69.33h.12a1,1,0,0,0,.71-.29l1.89-1.89a1,1,0,0,0,.28-.83l-.33-2.69a1,1,0,0,0-.46-.72l-2.31-1.47a1,1,0,0,0-.86-.1l-1.95.66-2.8-2.81H49a1,1,0,0,0,0-2H43.73l-1.92-1.92,5.24-1a1,1,0,0,0,.78-.78,1,1,0,0,0,0-1.11l-3-4.45h2.72l3.7,3.71a1,1,0,0,0,1.42,0,1,1,0,0,0,0-1.42L50.41,33h4l.91,1.85a1,1,0,0,0,.68.53l2.67.6.22,0a1,1,0,0,0,.61-.21l2.14-1.67a1,1,0,0,0,.39-.79V30.67a1,1,0,0,0-.39-.79ZM45.54,26.39,42.46,31H40.77l.19-.59a1,1,0,0,0-.35-1.09l-2.56-2,2.06-2.05ZM27.79,39l-.52-1.68a.09.09,0,0,0,0,0l-2.1-6.79L32,25.26l6.84,5.22-2.1,6.79a.09.09,0,0,0,0,0L36.21,39ZM49.46,11.82l1.74-.22,1.2,1.2-.22,1.74-1.51,1L49.05,15l-.55-1.62ZM37.61,18.46l1.08,5.43-2.24,2.25L33,23.51v-2ZM30.08,5.38,31.15,4h1.7l1.07,1.38-.39,1.75L32,7.88l-1.53-.75ZM26.39,18.46,31,21.54v2l-3.45,2.63-2.24-2.25Zm-13.06-3-1.51-1L11.6,12.8l1.2-1.2,1.74.22,1,1.51L15,15Zm5.13,10.89,5.43-1.08L26,27.36l-2.56,2A1,1,0,0,0,23,30.41l.19.59H21.54ZM7.13,33.53l-1.75.39L4,32.85v-1.7l1.38-1.07,1.75.39L7.88,32Zm11.33,4.08L21.54,33h2.31l1.35,4.38-1.31,1.31ZM14.54,52.18l-1.74.22-1.2-1.2.22-1.74,1.51-1,1.62.55.55,1.62Zm11.85-6.64-1.08-5.43.56-.56.23.74a1,1,0,0,0,1,.71H31v1.46Zm7.53,13.08L32.85,60h-1.7l-1.07-1.38.39-1.75L32,56.12l1.53.75Zm3.69-13.08L33,42.46V41h3.94a1,1,0,0,0,1-.71l.23-.74.56.56Zm13.06,3,1.51,1,.22,1.74-1.2,1.2-1.74-.22-1-1.51.55-1.62ZM45.54,37.61l-5.43,1.08L38.8,37.38,40.15,33h2.31ZM60,32.85l-1.38,1.07-1.75-.39L56.12,32l.75-1.53,1.75-.39L60,31.15Z"></path>
</svg>
