<svg xmlns="http://www.w3.org/2000/svg" viewBox="0 0 512 512" id="thunderstorm">
  <path fill="#7f757b" d="M399 242.7V320H4.9c0-17 6.8-32.2 17.9-43.3 11.1-11.1 26.4-17.9 43.2-17.9h1.1c5.7-35.5 36.8-62.7 73.8-62.7V175c0-48.2 38.9-87.3 87.1-87.3 42.8 0 78.4 30.8 85.8 71.5h1.5c46.2 0 83.7 37.4 83.7 83.5z"></path>
  <path fill="#5b5559" d="M315.3 159.2h-1.4v-.1l-.2.1c.9 5.1 1.3 10.4 1.3 15.8v45.9c21.5 0 39 17.5 39 39v60h45v-77.1c-.1-46.2-37.5-83.6-83.7-83.6z"></path>
  <path fill="#a59aa0" d="M215 270.7c0-41.2-33.2-74.5-74.3-74.6-36.9.1-67.9 27.2-73.6 62.6H66c-16.9 0-32.2 6.9-43.2 18C11.7 287.8 4.9 303 4.9 320H215v-49.3zM315.1 54.5c.9 0 1.6.1 2.5.1C325.7 26 352 5 383.3 5h.2C421.2 5 452 35.4 452 73.2v4.3c30 0 55.1 24.5 55.1 55.5H260v-23.1c0-30.6 24.6-55.4 55.1-55.4z"></path>
  <path fill="#b0add6" d="m272.8 512.1-8.7-5 20-34.6 8.7 5-20 34.6zm35-60.6-8.7-5 20-34.6 8.7 5-20 34.6zm35-60.6-8.7-5 20-34.6 8.7 5-20 34.6zM8.8 512.1l-8.7-5 20-34.6 8.7 5-20 34.6zm35-60.6-8.7-5 20-34.6 8.7 5-20 34.6zm35-60.6-8.7-5 20-34.6 8.7 5-20 34.6z"></path>
  <path fill="#7f757b" d="M451.9 77.5v32.3h1c12.7 0 23 10.3 23 23h31.2c0-30.9-25.2-55.3-55.2-55.3v-4.4c0-.1.2-.2.2-.3l-.2.3v4.4z"></path>
  <path fill="#fdcf72" d="M293.6 363.9H211.3l24.6-44h-65.6l-44.4 79H217.6l-58.7 113z"></path>
  <path fill="#fce682" d="m170.3 319.9-44.4 79c12.3 0 23.6-6.6 29.6-17.3l34.7-61.7h-19.9zm47.3 79L158.9 512l46.3-50.9 23.1-44.5c4.2-8.1-1.6-17.7-10.7-17.7z"></path>
  <path fill="#fdcf72" d="M421.3 168.6H354.6l19.9-35.7h-41.7l-36 64.1H359.7l-47.6 91.7z"></path>
  <path fill="#fce682" d="M353.2 132.9h-20.4l-36 64c12.6 0 24.2-6.8 30.4-17.8l26-46.2zm6.5 64-47.6 91.8 47.5-52.3 11.1-21.4c4.3-8.3-1.7-18.1-11-18.1z"></path>
  <path fill="#b0add6" d="m432.8 254.2-8.7-5 20-34.6 8.7 5-20 34.6zm35-60.7-8.7-5 20-34.6 8.7 5-20 34.6z"></path>
  <path fill="#50232d" d="M163.9 510.9c-1.2 0-2.4-.4-3.5-1.1-2.6-1.8-3.4-5.1-1.9-7.9l50.9-98.1h-83.5c-1.8 0-3.4-.9-4.3-2.5-.9-1.5-.9-3.4 0-5l44.4-79c.9-1.6 2.6-2.5 4.4-2.5H236c1.8 0 3.4.9 4.3 2.5.9 1.5.9 3.4 0 5l-20.5 36.6h15.1v10h-23.7c-1.8 0-3.4-.9-4.3-2.5-.9-1.5-.9-3.4 0-5l20.5-36.6h-54.1l-38.8 69h83.2c1.7 0 3.4.9 4.3 2.4.9 1.5 1 3.4.2 4.9l-41 79L284.9 366v-7.1h8.7c2 0 3.8 1.2 4.6 3 .8 1.8.5 3.9-.9 5.4L168.5 508.9c-1.2 1.3-2.9 2-4.6 2zm152-221.8c-1.2 0-2.3-.4-3.4-1.1-2.4-1.7-3.2-4.9-1.9-7.5l40.8-78.6h-54.7c-1.8 0-3.4-.9-4.3-2.5-.9-1.5-.9-3.4 0-5l36-64.1c.9-1.6 2.6-2.5 4.4-2.5h41.8c1.8 0 3.4.9 4.3 2.5.9 1.5.9 3.4 0 5l-15.8 28.2h58.2c2 0 3.8 1.2 4.6 3 .8 1.8.5 3.9-.9 5.4L320.2 287.2c-1.1 1.2-2.7 1.9-4.3 1.9zM305.3 192h54.4c1.7 0 3.4.9 4.3 2.4.9 1.5 1 3.4.2 4.9l-29.9 57.6 75.8-83.3h-55.4c-1.8 0-3.4-.9-4.3-2.5-.9-1.5-.9-3.4 0-5l15.8-28.2h-30.3L305.3 192zm-32.5 320.1-8.7-5 20-34.6 8.7 5-20 34.6zm35-60.6-8.7-5 20-34.6 8.7 5-20 34.6zm35-60.6-8.7-5 20-34.6 8.7 5-20 34.6zM8.8 512.1l-8.7-5 20-34.6 8.7 5-20 34.6zm35-60.6-8.7-5 20-34.6 8.7 5-20 34.6zm35-60.6-8.7-5 20-34.6 8.7 5-20 34.6zm296.5-281h-10c0-27.8-22.6-50.3-50.3-50.3v-10c33.2-.1 60.3 27 60.3 60.3zM446.6 73.2h10v36.7h-10z"></path>
  <path fill="#50232d" d="M507.1 138H259.9c-2.8 0-4.9-2.4-4.9-5.1v-23c0-32.9 26.3-59.7 59-60.3 6.9-20.2 22.5-36.7 42.5-44.6l3.7 9.3c-18.3 7.2-32.4 22.8-37.7 41.7-.6 2.2-2.7 3.7-5 3.6-.8 0-1.4-.1-2.2-.1-27.7 0-50.1 22.6-50.1 50.3V128H502c-2.5-26-23.9-45.4-49.9-45.4-2.8 0-5-2.3-5-5.1v-4.3c0-25.9-16.3-49.6-40.5-59l3.6-9.3C438.1 15.7 456.8 43 457 72.8c30.8 2.6 55.2 28.6 55.2 60.2-.1 2.7-2.4 5-5.1 5zM254.9 359.1h10v10h-10z"></path>
  <path fill="#50232d" d="M378.2-.1h10v10h-10zM220.2 270.7h-10c0-38.4-31.2-69.6-69.6-69.6v-10c43.9 0 79.6 35.7 79.6 79.6zm-105.8 20.5c-10.1-17-28.6-27.5-48.3-27.5v-10c23.2 0 45 12.4 56.9 32.4l-8.6 5.1z"></path>
  <path fill="#50232d" d="M398.9 325H4.9c-2.8 0-5-2.3-5-5.1 0-17.7 6.9-34.3 19.4-46.8C31 261.4 46.5 254.5 63 253.8c3.6-16.8 12.8-32.2 26.1-43.5 13.2-11.3 29.9-18 46.9-19.1V175c0-50.9 41.3-92.3 92.1-92.3 5 0 10 .4 14.9 1.2l-1.6 9.9c-4.4-.7-8.8-1.1-13.3-1.1-45.3 0-82.1 36.9-82.1 82.3v21.1c0 2.8-2.3 5-5 5-33.9 0-63.5 25.1-68.8 58.4-.4 2.5-2.6 4.3-5.1 4.2h-.9c-15 0-29.1 5.9-39.7 16.5-9.4 9.4-15.1 21.8-16.2 34.8H394v-72.3c0-6-.7-12-2.1-17.8l9.8-2.3c1.5 6.6 2.3 13.3 2.3 20.1v77.1c0 2.8-2.3 5.2-5.1 5.2zM432.8 254.2l-8.7-5 20-34.6 8.7 5-20 34.6zm35-60.7-8.7-5 20-34.6 8.7 5-20 34.6z"></path>
</svg>
